<svg id="Calque_1" data-name="Calque 1" xmlns="http://www.w3.org/2000/svg" viewBox="0 0 335.95 472.64"><defs><style>.cls-1{fill:#684896;}.cls-2{fill:#674897;stroke:#fff;stroke-miterlimit:10;stroke-width:0.5px;}</style></defs><title>favicon</title><path class="cls-1" d="M424.1,252.59c0,167.2-88.07,240.05-171.17,240.05-93,0-164.78-89.67-164.78-232.58C88.15,108.73,163.44,20,258.61,20,357.33,20,424.1,114.34,424.1,252.59Zm-272.74,4.66c0,99,43.33,173.75,104.41,173.75,59.66,0,104.41-73.8,104.41-175.61,0-76.6-29.13-173.74-103-173.74S151.36,171.32,151.36,257.25Z" transform="translate(-88.15 -20)"/><path class="cls-2" d="M163.84,425.3c3.71-16.64,16.28-25.56,27.25-18.76,15.19,9.43,33.87,16.7,52,16.7,39.55,0,58.1-29.1,58.1-65.48,0-38.2-15.45-59.12-55.63-80.94-53.76-28.2-79.1-71.86-79.1-124.6,0-70.95,38.94-129.16,103.21-129.16a114.46,114.46,0,0,1,55,14.39c10.6,5.85,16.27,22.78,12.59,38.54h0c-3.74,16-15.75,24.83-26.49,18.73a85.41,85.41,0,0,0-42.3-11.63c-32.13,0-50.06,27.28-50.06,60,0,36.38,17.93,52.75,56.86,74.58,51.91,29.1,78.48,67.3,78.48,132.78,0,77.32-40.78,131.88-111.85,131.88a133.42,133.42,0,0,1-66.43-17.51C165.25,459,160,442.33,163.45,427Z" transform="translate(-88.15 -20)"/></svg>